<svg width="60" height="80" viewBox="0 0 60 80" fill="none" xmlns="http://www.w3.org/2000/svg">
    <!-- Coffee cup base -->
    <path d="M12 35 L12 65 Q12 70 17 70 L43 70 Q48 70 48 65 L48 35 Z" fill="#F5F5DC"/>
    <path d="M12 35 L12 65 Q12 70 17 70 L43 70 Q48 70 48 65 L48 35 Z" fill="none" stroke="#D2B48C" stroke-width="1"/>

    <!-- Cup handle -->
    <path d="M48 45 Q55 45 55 52 Q55 59 48 59" fill="none" stroke="#D2B48C" stroke-width="2"/>

    <!-- Strawberry latte (main liquid) -->
    <ellipse cx="30" cy="35" rx="18" ry="3" fill="#FFB6C1"/>
    <rect x="12" y="35" width="36" height="25" fill="#FFB6C1"/>

    <!-- Latte layers -->
    <rect x="12" y="50" width="36" height="10" fill="#DDA0DD"/>
    <rect x="12" y="55" width="36" height="8" fill="#F4A460"/>

    <!-- Whipped cream on top -->
    <ellipse cx="30" cy="30" rx="16" ry="6" fill="#FFFAF0"/>
    <ellipse cx="25" cy="26" rx="4" ry="3" fill="#FFFAF0"/>
    <ellipse cx="35" cy="28" rx="5" ry="4" fill="#FFFAF0"/>
    <ellipse cx="30" cy="24" rx="3" ry="2.5" fill="#FFFAF0"/>

    <!-- Strawberry garnish on top -->
    <path d="M28 20 Q30 16 32 20 Q30 22 28 20 Z" fill="#FF6B6B"/>
    <path d="M28 20 L29 18 L30 19 L31 18 L32 20" stroke="#228B22" stroke-width="1" fill="none"/>
    <circle cx="29" cy="20" r="0.5" fill="#FFE4B5"/>
    <circle cx="31" cy="20" r="0.5" fill="#FFE4B5"/>

    <!-- Latte art (heart shape) -->
    <path d="M25 38 Q25 35 28 35 Q30 35 30 37 Q30 35 33 35 Q35 35 35 38 Q35 42 30 45 Q25 42 25 38 Z" fill="#FFFAF0"/>

    <!-- Coffee beans decoration -->
    <ellipse cx="20" cy="42" rx="1.5" ry="3" fill="#8B4513" transform="rotate(20 20 42)"/>
    <line x1="20" y1="40" x2="20" y2="44" stroke="#654321" stroke-width="0.5"/>

    <ellipse cx="40" cy="44" rx="1.5" ry="3" fill="#8B4513" transform="rotate(-15 40 44)"/>
    <line x1="40" y1="42" x2="40" y2="46" stroke="#654321" stroke-width="0.5"/>

    <!-- Steam swirls -->
    <path d="M22 25 Q24 20 22 15 Q20 10 22 5" stroke="#E6E6FA" stroke-width="2" fill="none" opacity="0.7"/>
    <path d="M30 25 Q32 18 30 12 Q28 8 30 3" stroke="#E6E6FA" stroke-width="2" fill="none" opacity="0.7"/>
    <path d="M38 25 Q36 20 38 15 Q40 10 38 5" stroke="#E6E6FA" stroke-width="2" fill="none" opacity="0.7"/>

    <!-- Cup rim highlight -->
    <ellipse cx="30" cy="35" rx="18" ry="3" fill="none" stroke="#FFFAF0" stroke-width="1"/>
</svg>
